<?xml version="1.0" standalone="no"?>
<!DOCTYPE svg PUBLIC "-//W3C//DTD SVG 20010904//EN"
 "http://www.w3.org/TR/2001/REC-SVG-20010904/DTD/svg10.dtd">
<svg version="1.0" xmlns="http://www.w3.org/2000/svg"
 width="500.000000pt" height="500.000000pt" viewBox="0 0 500.000000 500.000000"
 preserveAspectRatio="xMidYMid meet">

<g transform="translate(0.000000,500.000000) scale(0.100000,-0.100000)"
fill="#000000" stroke="none">
<path d="M2225 3564 c-451 -53 -827 -235 -1011 -491 -99 -137 -141 -272 -131
-423 18 -277 216 -521 554 -682 56 -27 103 -50 103 -51 0 -1 -18 -110 -40
-242 -21 -132 -37 -241 -35 -244 9 -9 146 45 259 101 114 57 281 159 356 218
l35 27 140 -10 c442 -32 903 106 1196 356 121 104 218 255 253 391 20 82 21
224 1 301 -96 374 -523 667 -1078 740 -107 14 -507 20 -602 9z m553 -35 c228
-25 384 -70 577 -165 152 -75 233 -133 336 -241 126 -134 186 -262 196 -422
16 -248 -115 -467 -390 -651 -143 -95 -310 -162 -542 -217 -114 -26 -132 -28
-387 -29 l-267 -2 -130 -86 c-115 -76 -309 -182 -368 -200 -17 -5 -21 -3 -17
11 2 10 24 101 49 202 25 101 45 185 43 186 -2 1 -42 20 -90 43 -363 169 -574
452 -555 747 10 160 70 283 206 427 198 209 525 355 887 396 114 13 339 14
452 1z"/>
<path d="M2396 2892 c-3 -5 -27 -97 -54 -206 l-50 -197 36 3 36 3 21 85 c27
105 37 124 74 139 31 13 71 2 71 -20 0 -10 -34 -150 -46 -191 -4 -15 1 -18 30
-18 32 0 36 3 45 38 47 181 51 211 25 236 -23 24 -95 21 -128 -5 -24 -19 -26
-19 -26 -2 0 10 7 43 15 73 8 30 15 58 15 63 0 10 -58 9 -64 -1z"/>
<path d="M1692 2843 c-27 -4 -34 -10 -39 -34 -4 -22 -11 -29 -29 -29 -13 0
-24 -4 -24 -9 0 -5 -3 -16 -6 -25 -4 -10 -1 -16 9 -16 27 0 28 -17 6 -104 -20
-80 -20 -87 -5 -111 13 -20 25 -25 60 -25 60 0 76 8 76 36 0 21 -5 24 -36 24
l-37 0 6 48 c3 26 12 65 19 87 12 37 16 40 54 43 35 3 43 7 47 28 4 22 1 24
-35 24 l-40 0 6 35 c4 19 6 34 4 33 -2 0 -18 -3 -36 -5z"/>
<path d="M2197 2843 c-21 -3 -31 -13 -39 -33 -6 -18 -18 -30 -31 -32 -16 -2
-23 -11 -25 -32 -2 -18 0 -26 7 -21 25 15 28 -9 10 -77 -32 -125 -21 -158 51
-158 55 0 70 8 70 39 0 25 -3 27 -30 23 -41 -6 -45 11 -22 99 l18 74 39 3 c39
3 55 15 55 40 0 7 -14 12 -39 12 l-40 0 6 35 c3 19 4 34 2 34 -2 -1 -17 -4
-32 -6z"/>
<path d="M1832 2768 c3 -7 13 -39 22 -71 l17 -59 -61 -74 -61 -74 38 0 c34 0
42 6 78 54 22 30 43 52 46 50 4 -2 12 -26 19 -54 11 -48 13 -50 46 -50 40 0
40 3 15 87 l-19 63 54 67 54 68 -32 3 c-33 4 -34 3 -93 -72 l-23 -30 -15 50
c-13 47 -16 49 -52 52 -28 3 -36 0 -33 -10z"/>
<path d="M2754 2766 c-75 -33 -125 -158 -93 -229 28 -63 168 -64 219 -2 11 13
11 18 -1 30 -13 13 -20 12 -56 -6 -37 -18 -45 -19 -70 -7 -19 9 -29 22 -31 41
l-3 27 99 0 100 0 6 31 c18 91 -9 129 -90 129 -27 -1 -63 -7 -80 -14z m104
-73 l3 -33 -60 0 c-46 0 -61 3 -61 14 0 25 51 57 84 54 27 -3 31 -7 34 -35z"/>
<path d="M2991 2653 c-18 -71 -34 -136 -37 -145 -4 -15 1 -18 30 -18 38 0 36
-4 67 125 19 82 56 124 99 110 26 -8 25 -38 0 -135 -26 -99 -26 -100 13 -100
33 0 34 2 47 57 29 130 39 153 76 170 32 16 36 16 51 1 15 -15 14 -23 -6 -105
-12 -48 -24 -96 -27 -105 -4 -15 1 -18 30 -18 39 0 33 -12 70 136 19 74 20
126 4 142 -22 22 -94 14 -127 -14 -17 -14 -31 -21 -31 -16 0 44 -92 56 -143
20 l-30 -22 5 22 c5 19 2 22 -27 22 l-33 0 -31 -127z"/>
</g>
</svg>
