<?xml version="1.0" standalone="no"?>
<!DOCTYPE svg PUBLIC "-//W3C//DTD SVG 20010904//EN"
 "http://www.w3.org/TR/2001/REC-SVG-20010904/DTD/svg10.dtd">
<svg version="1.0" xmlns="http://www.w3.org/2000/svg"
 width="100" height="100" viewBox="0 0 375.000000 666.000000"
 preserveAspectRatio="xMidYMid meet">

<g transform="translate(0.000000,666.000000) scale(0.100000,-0.100000)"
fill="#000000" stroke="none">
<path d="M1710 4485 c-85 -19 -164 -52 -230 -96 -210 -141 -266 -403 -128
-606 l29 -43 -53 -76 c-83 -119 -92 -138 -78 -178 17 -51 44 -71 99 -70 61 1
166 29 275 71 l90 36 70 -14 c39 -8 118 -14 176 -13 186 2 332 58 447 170 185
181 174 424 -28 626 -134 134 -326 209 -526 207 -48 -1 -113 -7 -143 -14z
m335 -101 c160 -41 307 -150 367 -272 30 -60 33 -76 33 -152 0 -72 -4 -93 -27
-136 -54 -103 -183 -189 -328 -220 -88 -19 -234 -14 -320 9 l-55 16 -116 -44
c-114 -43 -249 -78 -249 -65 0 4 9 15 19 24 27 25 121 180 121 201 0 9 -20 47
-44 84 -53 80 -70 140 -64 225 7 76 27 122 84 185 131 146 355 202 579 145z"/>
<path d="M1494 4056 c-7 -16 -8 -44 -3 -86 10 -73 14 -80 40 -80 23 0 25 15 4
24 -22 8 -20 92 3 105 16 9 16 10 0 16 -10 4 -18 16 -18 26 0 26 -13 24 -26
-5z"/>
<path d="M1858 4065 c-10 -29 -8 -185 1 -185 5 0 11 21 14 47 8 78 66 94 68
19 0 -17 4 -40 9 -51 6 -15 9 -7 9 31 1 59 -13 82 -54 86 -26 3 -31 8 -35 38
-5 28 -7 31 -12 15z"/>
<path d="M1753 4044 c-8 -17 -9 -43 -3 -84 10 -71 15 -80 43 -80 22 1 22 1 2
16 -25 19 -26 91 -1 110 15 10 15 12 1 18 -8 3 -15 12 -15 20 0 25 -15 25 -27
0z"/>
<path d="M1609 3994 l21 -36 -21 -34 c-26 -43 -19 -55 10 -18 l21 27 30 -28
c35 -33 39 -26 9 16 l-21 29 21 35 c22 39 12 48 -14 13 l-16 -23 -20 28 c-30
40 -45 33 -20 -9z"/>
<path d="M2025 3985 c-32 -31 -32 -69 0 -101 25 -25 56 -26 80 -2 7 7 3 8 -12
3 -33 -9 -63 3 -63 26 0 13 7 19 24 19 58 0 76 35 34 64 -30 21 -35 20 -63 -9z
m63 -17 c2 -12 -5 -19 -23 -24 -34 -8 -53 9 -35 31 17 20 54 16 58 -7z"/>
<path d="M2156 3974 c-10 -26 -7 -104 4 -104 6 0 10 17 10 38 0 47 19 76 43
66 13 -5 17 -18 17 -54 0 -27 5 -52 10 -55 6 -4 10 10 10 34 0 52 8 71 31 71
12 0 21 -9 24 -27 3 -16 10 -41 14 -58 8 -28 9 -27 10 15 2 71 -14 85 -97 88
-56 1 -71 -1 -76 -14z"/>
</g>
</svg>
